<?xml version="1.0" standalone="no"?><!DOCTYPE svg PUBLIC "-//W3C//DTD SVG 1.1//EN" "http://www.w3.org/Graphics/SVG/1.1/DTD/svg11.dtd"><svg t="1505441454673" class="icon" style="" viewBox="0 0 1024 1024" version="1.1" xmlns="http://www.w3.org/2000/svg" p-id="7347" xmlns:xlink="http://www.w3.org/1999/xlink" width="400" height="400"><defs><style type="text/css"></style></defs><path d="M390.857053 831.560386C258.345931 824.26308 147.629334 726.87981 123.623248 596.442928 122.023798 587.752331 127.772309 579.4106 136.462907 577.81115 145.153504 576.211701 153.495235 581.960211 155.094685 590.65081 177.278499 711.186392 282.848086 800 406.857053 800 530.958989 800 636.583266 711.055267 658.665034 590.402267 660.255867 581.71009 668.591894 575.95331 677.284074 577.544142 685.976251 579.134974 691.73303 587.471002 690.142198 596.163181 666.245813 726.731101 555.470662 824.257578 422.857053 831.560395L422.857053 912 422.857053 928 390.857053 928 390.857053 912 390.857053 831.560386 390.857053 831.560386ZM214.857053 543.846982C214.857053 650.013283 300.792374 736 406.857053 736 512.91313 736 598.857053 649.974141 598.857053 543.846982L598.857053 256.153018C598.857053 149.986717 512.92173 64 406.857053 64 300.800974 64 214.857053 150.025859 214.857053 256.153018L214.857053 543.846982ZM326.857053 960 486.857053 960C495.693608 960 502.857053 952.836555 502.857053 944 502.857053 935.163445 495.693608 928 486.857053 928L326.857053 928C318.020496 928 310.857053 935.163445 310.857053 944 310.857053 952.836555 318.020496 960 326.857053 960ZM830.567723 802.115109 727.15029 802.115109 727.15029 768.995034 835.441894 768.995034 830.567723 802.115109Z" p-id="7348" fill="#ffffff"></path></svg>