<?xml version="1.0" standalone="no"?><!DOCTYPE svg PUBLIC "-//W3C//DTD SVG 1.1//EN" "http://www.w3.org/Graphics/SVG/1.1/DTD/svg11.dtd"><svg t="1505045532334" class="icon" style="" viewBox="0 0 1024 1024" version="1.1" xmlns="http://www.w3.org/2000/svg" p-id="3062" xmlns:xlink="http://www.w3.org/1999/xlink" width="200" height="200"><defs><style type="text/css"></style></defs><path d="M512 1010.863998C236.873738 1010.863998 13.804965 787.795225 13.804965 512.668963S236.873738 14.473928 512 14.473928s498.195035 223.068773 498.195035 498.195035-223.068773 498.195035-498.195035 498.195035z m0-934.115691C271.294928 76.748307 76.079344 271.963891 76.079344 512.668963S271.294928 948.589619 512 948.589619 947.920656 753.374035 947.920656 512.668963 752.705072 76.748307 512 76.748307z m186.823138 467.057846h-155.685948v155.685948c0 17.14978-13.987409 31.13719-31.13719 31.13719S480.86281 716.641881 480.86281 699.492101v-155.685948H325.176862c-17.14978 0-31.13719-13.987409-31.13719-31.13719s13.987409-31.13719 31.13719-31.13719h155.685948v-155.685948c0-17.14978 13.987409-31.13719 31.13719-31.13719s31.13719 13.987409 31.13719 31.13719v155.685948h155.685948c17.14978 0 31.13719 13.987409 31.13719 31.13719s-13.987409 31.13719-31.13719 31.13719z" p-id="3063"></path></svg>