<?xml version="1.0" standalone="no"?><!DOCTYPE svg PUBLIC "-//W3C//DTD SVG 1.1//EN" "http://www.w3.org/Graphics/SVG/1.1/DTD/svg11.dtd"><svg t="1505045465825" class="icon" style="" viewBox="0 0 1024 1024" version="1.1" xmlns="http://www.w3.org/2000/svg" p-id="2400" xmlns:xlink="http://www.w3.org/1999/xlink" width="200" height="200"><defs><style type="text/css"></style></defs><path d="M344.064 370.688c28.672 0 51.2-22.528 51.2-51.2s-22.528-51.2-51.2-51.2-51.2 22.528-51.2 51.2 22.528 51.2 51.2 51.2z m335.872 0c28.672 0 51.2-22.528 51.2-51.2s-22.528-51.2-51.2-51.2-51.2 22.528-51.2 51.2c2.048 28.672 24.576 51.2 51.2 51.2z m-438.272 163.84c0 133.12 120.832 241.664 270.336 241.664s270.336-108.544 270.336-241.664H241.664z" fill="#515151" p-id="2401"></path><path d="M512 962.56C251.904 962.56 40.96 751.616 40.96 491.52S251.904 20.48 512 20.48s471.04 210.944 471.04 471.04-210.944 471.04-471.04 471.04z m0-901.12C274.432 61.44 81.92 253.952 81.92 491.52s192.512 430.08 430.08 430.08 430.08-192.512 430.08-430.08S749.568 61.44 512 61.44z" fill="#515151" p-id="2402"></path></svg>