<svg width="1024" height="1024" xmlns="http://www.w3.org/2000/svg" class="icon">
 <defs>
  <style type="text/css"/>
 </defs>
 <g>
  <title>background</title>
  <rect fill="none" id="canvas_background" height="1026" width="1192" y="-1" x="-1"/>
 </g>
 <g>
  <title>Layer 1</title>
  <path id="svg_1" fill="#3d962b" d="m997.053,881.448l0,115.605l-970.106,0l0,-115.605l323.369,-207.764l0,-80.842c-19.941,0 -38.373,-20.076 -55.35,-60.227c-17.004,-40.152 -25.492,-73.97 -25.492,-101.457l0,-161.684c0,-66.803 23.713,-123.958 71.168,-171.386c47.427,-47.427 104.528,-71.14 171.358,-71.14c66.83,0 123.958,23.713 171.385,71.14c47.428,47.428 71.141,104.583 71.141,171.386l0,161.684c0,27.486 -8.461,61.305 -25.465,101.457c-16.977,40.151 -35.409,60.227 -55.377,60.227l0,80.842l323.369,207.764"/>
 </g>
</svg>