<svg width="1024" height="1024" xmlns="http://www.w3.org/2000/svg" class="icon">
 <defs>
  <style type="text/css"/>
 </defs>
 <g>
  <title>background</title>
  <rect fill="none" id="canvas_background" height="1026" width="1192" y="-1" x="-1"/>
 </g>
 <g>
  <title>Layer 1</title>
  <path id="svg_1" fill="#3d962b" d="m874.046407,149.95134c-199.93512,-199.93512 -524.157694,-199.93512 -724.092814,0s-199.93512,524.157694 0,724.092814s524.157694,199.93512 724.092814,0s199.93512,-524.157694 0,-724.092814zm-689.404967,689.404967c-180.799204,-180.799205 -180.799204,-473.917915 0,-654.717119s473.917915,-180.799204 654.717119,0s180.799204,473.917915 0,654.781119s-473.917914,180.735204 -654.717119,-0.064zm252.734888,-406.654211l-187.007177,345.662479l339.070508,-193.599148l193.599148,-339.070508l-345.662479,187.007177zm79.295651,112.831504c-18.559918,0 -33.535852,-14.975934 -33.535852,-33.535853c0,-18.495919 15.039934,-33.535852 33.535852,-33.535852c18.495919,0 33.535852,15.039934 33.535852,33.535852c0.000001,18.559919 -15.039933,33.535853 -33.535852,33.535853z"/>
 </g>
</svg>