<?xml version="1.0" standalone="no"?><!DOCTYPE svg PUBLIC "-//W3C//DTD SVG 1.1//EN" "http://www.w3.org/Graphics/SVG/1.1/DTD/svg11.dtd"><svg t="1505231258975" class="icon" style="" viewBox="0 0 1024 1024" version="1.1" xmlns="http://www.w3.org/2000/svg" p-id="10127" xmlns:xlink="http://www.w3.org/1999/xlink" width="20" height="20"><defs><style type="text/css"></style></defs><path d="M868.835556 416c-0.540444 34.645333-5.660444 68.209778-15.502222 101.176889-8.220444 27.505778-19.427556 53.560889-33.109333 78.478222-8.163556 14.848-16.298667 29.752889-25.457778 43.918222-7.253333 11.207111-15.985778 21.361778-24.149333 31.971556-9.244444 12.003556-18.517333 23.978667-27.790222 35.953778-9.927111 12.828444-19.854222 25.628444-29.781333 38.456889-9.159111 11.861333-18.261333 23.722667-27.420444 35.555556-9.898667 12.828444-19.854222 25.628444-29.781333 38.428444-9.045333 11.690667-18.147556 23.352889-27.164444 35.100444-9.557333 12.430222-19.029333 24.917333-28.529778 37.347556-9.728 12.714667-19.484444 25.457778-29.269333 38.144-12.629333 16.384-28.216889 27.306667-48.696889 30.236444-25.799111 3.669333-47.416889-4.608-64.625778-24.462222-10.097778-11.662222-18.887111-24.547556-28.359111-36.807111-9.472-12.288-19.114667-24.433778-28.586667-36.721778-10.979556-14.222222-21.816889-28.586667-32.824889-42.808889-9.841778-12.686222-19.854222-25.230222-29.724444-37.888-9.102222-11.662222-18.119111-23.381333-27.136-35.100444-8.021333-10.439111-15.957333-20.963556-23.978667-31.431111-11.264-14.705778-22.556444-29.383111-33.848889-44.060444-7.395556-9.585778-15.217778-18.887111-22.129778-28.814222-6.684444-9.585778-12.885333-19.626667-18.602667-29.895111-7.224889-12.942222-14.051556-26.112-20.508444-39.480889-12.885333-26.766222-22.755556-54.812444-29.127111-84.024889-2.816-12.999111-4.209778-26.368-5.432889-39.651556-1.251556-13.596444-2.673778-27.363556-1.962667-40.96 0.995556-19.484444 3.470222-38.940444 6.030222-58.311111 3.356444-25.429333 10.894222-49.749333 20.195556-73.472 10.496-26.823111 23.978667-51.939556 40.192-75.491556C235.264 181.76 250.595556 163.868444 267.406222 147.313778c19.114667-18.801778 40.078222-35.100444 62.805333-48.924444 22.755556-13.852444 46.421333-25.713778 71.793778-33.223111 19.029333-5.632 38.343111-10.695111 57.827556-14.165333 23.352889-4.181333 47.160889-4.778667 70.798222-3.413333 26.823111 1.536 53.276444 6.144 79.132444 14.108444 22.101333 6.798222 43.434667 15.502222 63.829333 26.567111 21.674667 11.776 42.382222 25.230222 60.984889 41.870222 11.804444 10.552889 23.665778 21.191111 34.503111 32.796444 19.911111 21.333333 36.949333 45.056 51.342222 70.826667 14.307556 25.656889 25.998222 52.508444 33.422222 81.152 4.408889 16.981333 7.907556 34.275556 10.467556 51.655111C866.759111 382.890667 867.413333 399.502222 868.835556 416L868.835556 416zM370.033778 416.426667c0.426667 81.777778 63.630222 145.607111 139.491556 146.403556 81.863111 0.853333 143.445333-65.536 143.928889-145.493333 0.540444-83.2-62.464-145.095111-136.476444-147.854222C433.891556 266.410667 369.550222 336.440889 370.033778 416.426667L370.033778 416.426667z" p-id="10128" fill="#bfbfbf"></path></svg>