<?xml version="1.0" standalone="no"?><!DOCTYPE svg PUBLIC "-//W3C//DTD SVG 1.1//EN" "http://www.w3.org/Graphics/SVG/1.1/DTD/svg11.dtd"><svg t="1505099233801" class="icon" style="" viewBox="0 0 1024 1024" version="1.1" xmlns="http://www.w3.org/2000/svg" p-id="1887" xmlns:xlink="http://www.w3.org/1999/xlink" width="32" height="32"><defs><style type="text/css"></style></defs><path d="M737.088 836.544c9.088 15.36 3.968 35.84-11.904 44.48-15.616 9.088-35.392 3.712-44.224-11.904-9.536-15.36-3.968-35.392 11.392-44.48C708.48 815.616 728 821.184 737.088 836.544L737.088 836.544zM544.96 905.984 544.96 905.984c0 17.728-14.656 32.576-33.088 32.576-17.728 0-32.576-14.464-32.576-32.576l0-22.848c0-18.176 14.912-32.64 32.576-32.64 18.176 0 33.088 14.464 33.088 32.64L544.96 905.984 544.96 905.984zM343.744 869.184 343.744 869.184c-9.28 16.064-29.312 21.184-44.736 12.096-15.808-8.896-21.44-28.864-12.096-44.736l24.256-42.432c9.344-15.616 29.376-20.992 45.184-12.096 15.36 9.088 20.992 29.376 11.648 44.736L343.744 869.184 343.744 869.184zM187.648 737.344 187.648 737.344c-15.808 8.832-36.096 3.52-44.736-12.096-9.28-15.36-3.968-35.648 11.648-44.736l65.216-37.76c15.616-8.64 35.84-3.776 44.736 12.096 8.832 15.36 3.456 35.648-12.096 44.736L187.648 737.344 187.648 737.344zM118.272 544.704 118.272 544.704c-18.176 0-32.576-14.656-32.576-32.576 0-18.176 14.4-32.832 32.576-32.832l101.568 0c18.176 0 32.576 14.656 32.576 32.576 0 18.176-14.4 32.832-32.576 32.832L118.272 544.704 118.272 544.704zM154.624 343.232 154.624 343.232C138.752 334.4 133.632 314.368 142.976 298.752c8.64-15.808 28.864-21.184 44.736-12.096L298.048 350.72c15.616 8.896 20.736 28.864 12.096 44.288C300.864 410.816 280.832 415.936 265.472 407.104L154.624 343.232 154.624 343.232zM286.912 187.2 286.912 187.2l76.864 133.44c9.344 15.616 29.376 21.184 44.928 11.904C424.32 323.712 429.44 303.424 420.352 287.808L343.232 154.624C334.4 139.2 314.368 133.632 299.008 142.72 283.136 151.808 278.016 171.84 286.912 187.2L286.912 187.2zM479.296 118.272 479.296 118.272c0-17.728 14.912-32.832 32.576-32.832 18.176 0 33.088 14.72 33.088 32.832L544.96 272c0 18.176-14.656 32.832-33.088 33.088-17.728 0-32.576-14.4-32.576-33.088L479.296 118.272 479.296 118.272zM680.512 154.624 680.512 154.624c9.344-15.808 29.12-20.992 44.736-12.096 15.808 8.832 21.44 28.864 12.096 44.736l-77.056 133.44C651.584 336.256 631.104 341.824 615.552 332.8 599.936 323.712 594.816 303.424 603.648 287.808L680.512 154.624 680.512 154.624zM837.056 286.656 837.056 286.656l-133.696 77.056c-15.616 8.832-20.992 28.864-12.096 44.736 9.28 15.36 29.312 20.48 44.736 11.904l133.696-77.056c15.36-8.832 20.992-28.864 11.648-44.48C872.448 282.944 852.352 277.312 837.056 286.656L837.056 286.656zM905.728 479.296 905.728 479.296c18.368 0 32.832 14.656 32.576 32.832 0 17.92-14.208 32.576-32.576 32.576l-153.92 0c-17.728 0-32.64-14.656-32.64-32.832 0-17.92 14.912-32.576 32.64-32.576L905.728 479.296 905.728 479.296z" p-id="1888"></path></svg>