<?xml version="1.0" standalone="no"?><!DOCTYPE svg PUBLIC "-//W3C//DTD SVG 1.1//EN" "http://www.w3.org/Graphics/SVG/1.1/DTD/svg11.dtd"><svg t="1505231241616" class="icon" style="" viewBox="0 0 1024 1024" version="1.1" xmlns="http://www.w3.org/2000/svg" p-id="9042" xmlns:xlink="http://www.w3.org/1999/xlink" width="20" height="20"><defs><style type="text/css"></style></defs><path d="M512 85.333333C276.366222 85.333333 85.333333 276.366222 85.333333 512c0 235.633778 191.032889 426.666667 426.666667 426.666667 235.633778 0 426.666667-191.032889 426.666667-426.666667C938.666667 276.366222 747.633778 85.333333 512 85.333333m165.745778 724.992a339.228444 339.228444 0 0 1-181.233778 42.666667 413.155556 413.155556 0 0 0 14.222222-46.208l5.845334-23.424-17.066667-17.066667c-0.184889-0.199111-17.408-18.759111-8.903111-31.516444C505.187556 712.917333 525.056 711.210667 526.222222 711.111111h36.992l24.220445-169.386667-120.035556-48.014222-115.114667 57.557334-46.264888-15.416889L187.733333 618.666667A340.024889 340.024889 0 0 1 170.666667 512c0-67.84 19.896889-131.128889 54.158222-184.32l174.791111 74.894222 141.610667-70.826666 92.444444-138.666667a342.755556 342.755556 0 0 1 136.746667 96.156444c-34.190222 26.083556-90.424889 79.416889-71.338667 136.689778 6.968889 20.935111 10.481778 62.122667 11.605333 93.340445-16.967111 13.610667-39.992889 35.029333-51.953777 58.979555-18.432 36.864-8.874667 110.094222-3.925334 139.875556l22.940445 92.202666z m74.012444-55.608889l-13.041778-52.224c-5.660444-35.100444-7.267556-76.117333-3.655111-86.072888 6.144-12.330667 28.970667-31.459556 42.382223-40.476445l19.000888-12.657778v-22.855111c0-9.244444-0.440889-90.410667-15.516444-138.666666 2.901333-8.917333 18.773333-26.211556 36.977778-41.116445A339.271111 339.271111 0 0 1 853.333333 512c0 94.862222-38.897778 180.792889-101.575111 242.716444zM411.605333 838.257778l-1.336889-0.426667 0.455112-0.455111 0.881777 0.881778z m-1.564444-0.483556a342.897778 342.897778 0 0 1-184.988445-141.112889l94.72-66.304 39.054223 13.027556 112.455111-56.220445 22.186666 8.874667-5.290666 37.063111c-21.361778 7.580444-47.687111 23.011556-68.551111 54.328889-29.212444 43.804444-15.601778 88.945778 2.844444 118.016-4.394667 14.051556-9.244444 26.865778-12.430222 32.327111z m134.968889-665.543111l-62.222222 93.326222-85.944889 42.979556-114.346667-49.009778A340.010667 340.010667 0 0 1 512 170.666667c11.136 0 22.144 0.540444 32.995556 1.578666z" fill="#bfbfbf" p-id="9043"></path></svg>