<?xml version="1.0" standalone="no"?><!DOCTYPE svg PUBLIC "-//W3C//DTD SVG 1.1//EN" "http://www.w3.org/Graphics/SVG/1.1/DTD/svg11.dtd"><svg t="1501553495980" class="icon" style="" viewBox="0 0 1024 1024" version="1.1" xmlns="http://www.w3.org/2000/svg" p-id="1821" xmlns:xlink="http://www.w3.org/1999/xlink" width="48" height="48"><defs><style type="text/css"></style></defs><path d="M830.416162 150.626263c16.334869 0 31.957333 3.145697 46.868687 9.438384 14.438141 6.119434 27.194182 14.739394 38.272 25.858586 11.119192 11.076525 19.739152 23.833859 25.858586 38.270707 6.291394 14.911354 9.438384 30.535111 9.438384 46.868687L950.853818 695.078788c0 16.334869-3.14699 31.957333-9.438384 46.868687-6.119434 14.438141-14.739394 27.195475-25.858586 38.272-11.076525 11.119192-23.833859 19.739152-38.272 25.858586-14.911354 6.291394-30.533818 9.438384-46.868687 9.438384l-521.955556 0c-16.333576 0-31.957333-3.14699-46.868687-9.438384-14.438141-6.119434-27.216162-14.739394-38.335354-25.858586-11.119192-11.075232-19.717172-23.833859-25.793939-38.272-6.335354-14.911354-9.50303-30.533818-9.50303-46.868687L187.959596 607.288889l-120.371717-113.971717 120.371717-113.907071 0-108.347475c0-16.333576 3.167677-31.957333 9.50303-46.868687 6.076768-14.394182 14.674747-27.151515 25.793939-38.270707 11.119192-11.119192 23.897212-19.739152 38.335354-25.858586 14.911354-6.292687 30.535111-9.438384 46.868687-9.438384L830.416162 150.626263zM656.517172 483.038384c0 16.636121 5.882828 30.836364 17.648485 42.60202 11.721697 11.766949 25.901253 17.648485 42.536081 17.648485 16.636121 0 30.837657-5.882828 42.60202-17.648485 11.766949-11.765657 17.648485-25.965899 17.648485-42.60202s-5.882828-30.836364-17.648485-42.60202c-11.765657-11.765657-25.965899-17.648485-42.60202-17.648485-16.634828 0-30.814384 5.882828-42.536081 17.648485C662.4 452.20202 656.517172 466.402263 656.517172 483.038384zM378.084848 440.436364c-11.765657 11.765657-17.648485 25.965899-17.648485 42.60202s5.882828 30.836364 17.648485 42.60202c11.765657 11.766949 25.943919 17.648485 42.537374 17.648485 16.636121 0 30.836364-5.882828 42.60202-17.648485 11.765657-11.765657 17.648485-25.965899 17.648485-42.60202s-5.882828-30.836364-17.648485-42.60202c-11.765657-11.765657-25.965899-17.648485-42.60202-17.648485S389.807838 428.670707 378.084848 440.436364z" p-id="1822" fill="#8a8a8a"></path></svg>