<?xml version="1.0" standalone="no"?><!DOCTYPE svg PUBLIC "-//W3C//DTD SVG 1.1//EN" "http://www.w3.org/Graphics/SVG/1.1/DTD/svg11.dtd"><svg t="1505039887024" class="icon" style="" viewBox="0 0 1024 1024" version="1.1" xmlns="http://www.w3.org/2000/svg" p-id="4250" xmlns:xlink="http://www.w3.org/1999/xlink" width="48" height="48"><defs><style type="text/css"></style></defs><path d="M503.56591 534.531156c-124.06769 0-225.502917-98.91687-225.502917-220.47132 0-121.553427 101.435227-220.470297 225.502917-220.470297 124.063597 0 225.498824 98.91687 225.498824 220.470297C729.064734 435.614286 627.629507 534.531156 503.56591 534.531156M596.615143 931.041842 428.116521 931.041842c-159.275563 0-285.018406 0-285.018406-80.473823l0-16.763802c0-153.407925 127.422088-278.31575 285.018406-278.31575l168.498622 0c156.7613 0 285.018406 124.907824 285.018406 278.31575l0 16.763802C880.794437 931.041842 749.182934 931.041842 596.615143 931.041842" p-id="4251" fill="#e6e6e6"></path></svg>