<?xml version="1.0" standalone="no"?><!DOCTYPE svg PUBLIC "-//W3C//DTD SVG 1.1//EN" "http://www.w3.org/Graphics/SVG/1.1/DTD/svg11.dtd"><svg t="1505129487177" class="icon" style="" viewBox="0 0 1024 1024" version="1.1" xmlns="http://www.w3.org/2000/svg" p-id="31478" xmlns:xlink="http://www.w3.org/1999/xlink" width="20" height="20"><defs><style type="text/css"></style></defs><path d="M512 895.8c-93.4 0-186.9 0.3-280.3-0.1-48.9-0.2-64.6-15.7-60.2-65.1 12.4-140 84.5-240.9 213.4-293.4 130.8-53.3 252.8-29.5 358.6 66.4 69.2 62.7 106.1 141.1 109.6 234.3 1.6 43-13.6 57.5-57.2 57.7-94.6 0.5-189.2 0.2-283.9 0.2zM509.1 469.5c-95.2-1.5-169.5-78.9-167.6-174.7 1.9-95.1 79.7-169 175.6-166.7 93.7 2.3 166.8 78.5 165.8 172.9-1 95.4-78 170-173.8 168.5z" p-id="31479"></path></svg>