<?xml version="1.0" standalone="no"?><!DOCTYPE svg PUBLIC "-//W3C//DTD SVG 1.1//EN" "http://www.w3.org/Graphics/SVG/1.1/DTD/svg11.dtd"><svg t="1505129359241" class="icon" style="" viewBox="0 0 1024 1024" version="1.1" xmlns="http://www.w3.org/2000/svg" p-id="27954" xmlns:xlink="http://www.w3.org/1999/xlink" width="20" height="20"><defs><style type="text/css"></style></defs><path d="M527.882736 392.785851c-66.997903 0-121.335463 54.416354-121.335463 121.526821 0 67.204611 54.336536 121.620965 121.335463 121.620965s121.330346-54.416354 121.330346-121.620965C649.213082 447.201182 594.880639 392.785851 527.882736 392.785851L527.882736 392.785851zM831.816956 248.452605 717.863624 248.452605l-76.204589-75.972299L414.106436 172.480306l-76.091002 75.972299L224.061079 248.452605c-41.780569 0-75.969229 31.507598-75.969229 75.968206L148.09185 737.578642c0 44.334741 34.189683 80.640622 75.969229 80.640622l607.754854 0c41.72224 0 75.969229-31.637558 75.969229-75.976392L907.785162 324.421834C907.785162 279.960203 873.538173 248.452605 831.816956 248.452605L831.816956 248.452605zM527.882736 704.261838c-106.2243 0-189.55417-83.57751-189.55417-189.848882 0-106.381889 83.32987-189.955306 189.55417-189.955306 106.220207 0 189.665711 83.573417 189.665711 189.955306C717.547423 620.687398 634.101919 704.261838 527.882736 704.261838L527.882736 704.261838z" p-id="27955"></path></svg>