<?xml version="1.0" standalone="no"?><!DOCTYPE svg PUBLIC "-//W3C//DTD SVG 1.1//EN" "http://www.w3.org/Graphics/SVG/1.1/DTD/svg11.dtd"><svg t="1505060005351" class="icon" style="" viewBox="0 0 1024 1024" version="1.1" xmlns="http://www.w3.org/2000/svg" p-id="6714" xmlns:xlink="http://www.w3.org/1999/xlink" width="48" height="48"><defs><style type="text/css"></style></defs><path d="M427.930824 959.553586c-12.845665 0-24.896796-5.047755-33.945894-14.137809L77.175356 628.609276c-9.048075-8.966164-14.052826-20.975315-14.052826-33.779001-0.041979-12.844641 4.961748-24.936727 14.052826-34.026781L552.660534 85.317292c8.130673-7.213272 31.233622-22.393396 45.87211-22.393395l260.595198 0.041979c3.961412 0 7.671973 1.084295 10.842945 2.961076 52.166957 11.258643 90.574944 57.96522 90.574944 111.802134v253.545747c0 18.557922-11.59243 28.607356-19.265426 35.239061-1.709888 1.46006-3.502712 3.003056-5.295535 4.795879L461.834739 945.457757c-9.008143 9.048075-21.060297 14.095829-33.903915 14.095829zM599.033324 105.668037c-1.335146 0.666549-12.303006 6.463788-17.13984 10.758987L107.368711 590.992753c0.041979 0.041979 0 7.382213 0 7.422145l320.562113 318.435503c1.000336 0 2.417393-0.290783 3.668581-1.544019l474.189963-474.189963c2.545379-2.544355 5.08871-4.795879 7.549106-6.921465 1.875758-1.626954 4.461068-3.837522 5.08871-4.753899l-0.584638-251.711969c0-35.363975-26.562657-65.889068-61.759739-70.934775-1.542995-0.207849-3.00408-0.625594-4.378134-1.126274H599.033324z" fill="#1296db" p-id="6715"></path><path d="M748.243109 240.489161c23.601581 0 42.701137 19.099557 42.701137 42.704209 0 23.602605-19.099557 42.702161-42.701137 42.702162-23.604652 0-42.704209-19.099557-42.704209-42.702162 0-23.604652 19.099557-42.704209 42.704209-42.704209z" fill="#1296db" p-id="6716"></path></svg>