<?xml version="1.0" standalone="no"?><!DOCTYPE svg PUBLIC "-//W3C//DTD SVG 1.1//EN" "http://www.w3.org/Graphics/SVG/1.1/DTD/svg11.dtd"><svg t="1505230617711" class="icon" style="" viewBox="0 0 1024 1024" version="1.1" xmlns="http://www.w3.org/2000/svg" p-id="1848" xmlns:xlink="http://www.w3.org/1999/xlink" width="48" height="48"><defs><style type="text/css"></style></defs><path d="M700.934851 501.108059H517.446994V317.619179a7.149755 7.149755 0 0 0-7.148731-7.149755h-2.042495a7.149755 7.149755 0 0 0-7.148732 7.149755v183.48888H317.618156a7.148731 7.148731 0 0 0-7.148732 7.148732v2.042494a7.149755 7.149755 0 0 0 7.148732 7.149755H501.107036v183.488881a7.148731 7.148731 0 0 0 7.148732 7.148731h2.042495a7.147708 7.147708 0 0 0 7.148731-7.148731V517.448017H700.935875a7.149755 7.149755 0 0 0 7.148731-7.149755v-2.042494a7.149755 7.149755 0 0 0-7.149755-7.147709zM0.002047 38.131002h10.893987V10.896034h27.233945v-10.893987h-38.127932v38.128955zM10.896034 70.81194H0.002047v59.914882h10.893987V70.81194z m0 92.594797H0.002047v59.914883h10.893987v-59.914883z m0 92.595821H0.002047v59.914883h10.893987v-59.914883z m0 92.594798H0.002047v59.914883h10.893987v-59.914883z m0 92.595821H0.002047v59.914882h10.893987V441.193177z m0 92.595821H0.002047v59.913859h10.893987v-59.913859z m0 92.594797H0.002047v59.914883h10.893987v-59.914883z m0 359.48725H0.002047v38.125885h38.127932v-10.892964H10.896034v-27.232921z m1002.207933 27.233945h-27.233945v10.893987h38.127932v-38.127932h-10.893987v27.233945zM985.870022 0.004093V10.89808h27.233945v27.232922h10.893987v-38.126909h-38.127932zM70.810917 10.89808h59.914883v-10.893987H70.810917V10.89808z m92.594797 0h59.914883v-10.893987h-59.914883V10.89808z m152.509681-10.893987h-59.914883V10.89808h59.914883v-10.893987z m92.595821 0h-59.914883V10.89808h59.914883v-10.893987z m92.594797 0h-59.914883V10.89808h59.914883v-10.893987z m92.595821 0h-59.914883V10.89808h59.914883v-10.893987z m92.594798 0h-59.914883V10.89808h59.914883v-10.893987z m326.807335 130.722729h10.893987V70.81194h-10.893987v59.914882z m0 92.594798h10.893987v-59.914883h-10.893987v59.914883z m0 92.595821h10.893987v-59.914883h-10.893987v59.914883z m0 92.594798h10.893987v-59.914883h-10.893987v59.914883z m0 92.59582h10.893987V441.193177h-10.893987v59.914882z m0 92.594798h10.893987v-59.913859h-10.893987v59.913859z m0 92.595821h10.893987v-59.914883h-10.893987v59.914883zM70.810917 1023.998977h59.914883v-10.893987H70.810917v10.893987z m92.594797 0h59.914883v-10.893987h-59.914883v10.893987z m92.595821 0h59.914883v-10.893987h-59.914883v10.893987z m92.594798 0h59.914883v-10.893987h-59.914883v10.893987z m92.595821 0h59.914882v-10.893987h-59.914882v10.893987z m92.594797 0h59.914883v-10.893987h-59.914883v10.893987z m92.594798 0h59.914883v-10.893987h-59.914883v10.893987zM10.896034 718.979616H0.002047v59.914883h10.893987v-59.914883z m0 92.594798H0.002047v59.914882h10.893987V811.574414z m0 92.595821H0.002047v59.914882h10.893987v-59.914882z m1002.207933-125.276759h10.893987v-59.914883h-10.893987v59.914883z m0 92.594797h10.893987v-59.913859h-10.893987v59.913859z m0 92.595821h10.893987v-59.914883h-10.893987v59.914883z m-294.126397 59.914883h59.914883v-10.893987h-59.914883v10.893987z m92.594797 0h59.914883v-10.893987h-59.914883v10.893987z m92.595821 0h59.914883v-10.893987h-59.914883v10.893987zM718.97757 10.89808h59.914883v-10.893987h-59.914883V10.89808z m92.594797 0h59.914883v-10.893987h-59.914883V10.89808z m92.595821 0h59.914883v-10.893987h-59.914883V10.89808z" p-id="1849"></path></svg>