<?xml version="1.0" standalone="no"?><!DOCTYPE svg PUBLIC "-//W3C//DTD SVG 1.1//EN" "http://www.w3.org/Graphics/SVG/1.1/DTD/svg11.dtd"><svg t="1505129226998" class="icon" style="" viewBox="0 0 1024 1024" version="1.1" xmlns="http://www.w3.org/2000/svg" p-id="27033" xmlns:xlink="http://www.w3.org/1999/xlink" width="20" height="20"><defs><style type="text/css"></style></defs><path d="M279.144116 456.43345c49.558719 0 89.734744-40.176025 89.734744-89.734744s-40.176025-89.733721-89.734744-89.73372-89.733721 40.176025-89.73372 89.73372 40.173978 89.734744 89.73372 89.734744z m594.489736-295.375287H148.28065c-41.298592 0-74.7781 33.478486-74.778101 74.779123v550.870286c0 41.299615 33.479509 74.7781 74.778101 74.778101h725.353202c41.299615 0 74.779124-33.478486 74.779124-74.778101V235.837286c0-41.300638-33.478486-74.779124-74.779124-74.779123z m13.710257 628.140137c0 6.884804-5.579065 12.464893-12.462846 12.464892h-727.847c-6.883781 0-12.462846-5.580089-12.462846-12.464892V234.590899c0-6.883781 5.580089-12.463869 12.462846-12.463869h727.845976c6.884804 0 12.462846 5.580089 12.462846 12.463869l0.001024 554.607401zM408.760173 578.572208l-71.039963-72.285327-150.803611 148.310838v87.24197H833.75254V542.429033L643.068639 348.003925 408.760173 578.572208z" fill="" p-id="27034"></path></svg>