<?xml version="1.0" standalone="no"?><!DOCTYPE svg PUBLIC "-//W3C//DTD SVG 1.1//EN" "http://www.w3.org/Graphics/SVG/1.1/DTD/svg11.dtd"><svg t="1504491195631" class="icon" style="" viewBox="0 0 1024 1024" version="1.1" xmlns="http://www.w3.org/2000/svg" p-id="2571" xmlns:xlink="http://www.w3.org/1999/xlink" width="32" height="32"><defs><style type="text/css"></style></defs><path d="M258.321067 406.050133a110.1824 110.1824 0 0 0 110.045866-110.08c0-60.689067-49.3568-110.08-110.045866-110.08S148.2752 235.281067 148.2752 295.936a110.216533 110.216533 0 0 0 110.045867 110.114133z m0-170.9056c33.518933 0 60.791467 27.272533 60.791466 60.791467 0 33.518933-27.272533 60.8256-60.791466 60.8256s-60.8256-27.306667-60.8256-60.8256c0.034133-33.518933 27.306667-60.791467 60.8256-60.791467zM841.250133 684.885333V555.008a25.053867 25.053867 0 0 0-4.369066-14.062933l-166.6048-239.957334a24.6784 24.6784 0 0 0-39.7312-1.024l-116.770134 151.415467-45.8752-49.083733a24.644267 24.644267 0 0 0-36.693333 0.8192l-153.941333 180.394666-51.0976-46.660266a24.3712 24.3712 0 0 0-18.6368-6.417067 24.849067 24.849067 0 0 0-17.373867 9.386667l-101.649067 129.911466a24.576 24.576 0 0 0 19.387734 39.765334h708.744533a24.576 24.576 0 0 0 24.610133-24.610134z m-49.2544-24.610133H158.481067l54.101333-69.12 50.2784 45.943467a24.610133 24.610133 0 0 0 35.328-2.184534l152.576-178.7904 46.830933 50.0736a24.917333 24.917333 0 0 0 19.182934 7.816534 24.746667 24.746667 0 0 0 18.3296-9.557334l113.902933-147.729066 142.984533 206.062933v97.4848z" p-id="2572" fill="#1296db"></path><path d="M917.504 684.4416V220.023467c0-57.856-43.451733-104.925867-96.904533-104.925867H108.202667C54.784 115.0976 11.298133 162.167467 11.298133 220.023467v464.384c0 57.856 43.451733 104.891733 96.904534 104.891733h712.3968c53.418667 0.034133 96.904533-47.035733 96.904533-104.8576z m-856.507733 0V220.023467c0-30.446933 21.1968-55.227733 47.2064-55.227734h712.3968c26.043733 0 47.172267 24.7808 47.172266 55.227734v464.384c0 30.446933-21.128533 55.1936-47.172266 55.1936H108.202667c-26.0096 0.034133-47.2064-24.746667-47.2064-55.159467z" p-id="2573" fill="#1296db"></path><path d="M954.1632 221.934933l0.1024 64.341334c6.724267 9.5232 8.669867 18.602667 8.669867 31.914666v464.418134c0 30.446933-21.128533 55.1936-47.172267 55.1936H203.3664c-15.496533 0-22.6304-2.1504-32.5632-15.291734-13.312 0.341333-43.485867-0.068267-57.002667 0 12.288 44.168533 47.035733 64.989867 89.6 64.989867H915.797333c53.384533 0 96.904533-47.035733 96.904534-104.891733V318.225067c-0.034133-43.9296-23.108267-80.657067-58.538667-96.290134z" p-id="2574" fill="#1296db"></path></svg>