<?xml version="1.0" standalone="no"?><!DOCTYPE svg PUBLIC "-//W3C//DTD SVG 1.1//EN" "http://www.w3.org/Graphics/SVG/1.1/DTD/svg11.dtd"><svg t="1505039831758" class="icon" style="" viewBox="0 0 1024 1024" version="1.1" xmlns="http://www.w3.org/2000/svg" p-id="2877" xmlns:xlink="http://www.w3.org/1999/xlink" width="32" height="32"><defs><style type="text/css"></style></defs><path d="M511.999488 893.024993c-210.101135 0-381.034203-170.923858-381.034203-381.013737 0-210.102159 170.934091-381.026016 381.034203-381.026016 210.099089 0 381.024993 170.923858 381.024993 381.026016C893.024481 722.100112 722.0996 893.024993 511.999488 893.024993zM511.999488 192.423521C335.776951 192.423521 192.402543 335.787696 192.402543 512.01228c0 176.212304 143.374408 319.575456 319.596945 319.575456 176.22356 0 319.586712-143.363152 319.586712-319.575456C831.585177 335.787696 688.223049 192.423521 511.999488 192.423521z" p-id="2878" fill="#707070"></path><path d="M437.331905 442.441784c0 38.417985-23.867594 69.559239-53.337789 69.559239-29.458939 0-53.327556-31.141254-53.327556-69.559239 0-38.419008 23.868617-69.557192 53.327556-69.557192C413.463288 372.885616 437.331905 404.0238 437.331905 442.441784z" p-id="2879" fill="#707070"></path><path d="M693.32116 442.441784c0 38.417985-23.868617 69.559239-53.336766 69.559239-29.458939 0-53.326533-31.141254-53.326533-69.559239 0-38.419008 23.867594-69.557192 53.326533-69.557192C669.452543 372.885616 693.32116 404.0238 693.32116 442.441784z" p-id="2880" fill="#707070"></path><path d="M511.999488 750.669798c-91.545996 0-173.822884-54.549384-209.610972-138.962935l56.558134-23.980157c26.148543 61.657268 86.225827 101.504812 153.052838 101.504812 66.827011 0 126.895085-39.847543 153.043628-101.504812l56.558134 23.980157C685.812139 696.121438 603.537298 750.669798 511.999488 750.669798z" p-id="2881" fill="#707070"></path></svg>