<?xml version="1.0" standalone="no"?><!DOCTYPE svg PUBLIC "-//W3C//DTD SVG 1.1//EN" "http://www.w3.org/Graphics/SVG/1.1/DTD/svg11.dtd"><svg t="1505129461614" class="icon" style="" viewBox="0 0 1024 1024" version="1.1" xmlns="http://www.w3.org/2000/svg" p-id="30135" xmlns:xlink="http://www.w3.org/1999/xlink" width="20" height="20"><defs><style type="text/css"></style></defs><path d="M576 422.4 544 422.4 544 396.8c0 0 0 0 0 0L576 396.8c19.2 0 32-12.8 32-32 0-19.2-12.8-32-32-32L556.8 332.8l0 0 38.4-38.4c12.8-12.8 12.8-32 0-44.8-12.8-12.8-32-12.8-44.8 0L512 294.4 473.6 249.6c-12.8-12.8-32-12.8-44.8 0-12.8 12.8-12.8 32 0 44.8l38.4 38.4 0 0L448 332.8c-19.2 0-32 12.8-32 32C416 384 428.8 396.8 448 396.8l38.4 0c0 0 0 0 0 0l0 25.6L448 422.4c-19.2 0-32 12.8-32 32 0 19.2 12.8 32 32 32l38.4 0 0 44.8c0 19.2 12.8 32 32 32s32-12.8 32-32L550.4 486.4 576 486.4c19.2 0 32-12.8 32-32C608 435.2 595.2 422.4 576 422.4z" p-id="30136"></path><path d="M742.4 435.2c-19.2 108.8-115.2 192-230.4 192C403.2 627.2 307.2 550.4 288 448L128 352l0 486.4C128 908.8 185.6 960 249.6 960l524.8 0c70.4 0 121.6-57.6 121.6-121.6L896 345.6 742.4 435.2z" p-id="30137"></path><path d="M512 166.4c108.8 0 198.4 76.8 224 179.2L896 243.2 896 185.6C896 115.2 838.4 64 774.4 64L249.6 64C185.6 64 128 115.2 128 185.6L128 256l160 96C307.2 243.2 403.2 166.4 512 166.4z" p-id="30138"></path></svg>