<?xml version="1.0" standalone="no"?><!DOCTYPE svg PUBLIC "-//W3C//DTD SVG 1.1//EN" "http://www.w3.org/Graphics/SVG/1.1/DTD/svg11.dtd"><svg t="1505123953141" class="icon" style="" viewBox="0 0 1024 1024" version="1.1" xmlns="http://www.w3.org/2000/svg" p-id="12753" xmlns:xlink="http://www.w3.org/1999/xlink" width="40" height="40"><defs><style type="text/css"></style></defs><path d="M511.998977 958.200388c-246.373247 0-446.202435-199.817931-446.202435-446.199365s199.829188-446.202435 446.202435-446.202434c246.37427 0 446.204481 199.822025 446.204481 446.202434S756.444315 958.200388 511.998977 958.200388z m0-853.601098c-225.046522 0-407.40685 182.360328-407.40685 407.401733 0 225.040383 182.360328 407.40071 407.40685 407.400711s407.408897-182.360328 407.408896-407.400711c0-225.041406-184.311773-407.401734-407.408896-407.401733z m252.192789 444.261223c0 139.680273-112.506377 252.200976-252.192789 252.200975-139.675156 0-252.192789-112.520703-252.19279-252.200975h504.385579zM603.180676 370.380562c0 27.857465 22.584368 50.439786 50.433645 50.439786 27.860535 0 50.445926-22.582321 50.445926-50.439786 0-27.857465-22.585391-50.439786-50.445926-50.439786-27.850301 0-50.433646 22.582321-50.433645 50.439786z m-285.182135 0c0 27.857465 22.585391 50.439786 50.434669 50.439786 27.860535 0 50.444902-22.582321 50.444903-50.439786 0-27.857465-22.584368-50.439786-50.444903-50.439786-27.848255 0-50.434669 22.582321-50.434669 50.439786z" p-id="12754"></path></svg>