<?xml version="1.0" standalone="no"?><!DOCTYPE svg PUBLIC "-//W3C//DTD SVG 1.1//EN" "http://www.w3.org/Graphics/SVG/1.1/DTD/svg11.dtd"><svg t="1505231220101" class="icon" style="" viewBox="0 0 1024 1024" version="1.1" xmlns="http://www.w3.org/2000/svg" p-id="7625" xmlns:xlink="http://www.w3.org/1999/xlink" width="20" height="20"><defs><style type="text/css"></style></defs><path d="M514.01796 686.35398c-64.849984 0-117.40392-66.898643-117.40392-149.423171s52.553936-149.423171 117.40392-149.423171c64.849984 0 117.40392 66.898643 117.40392 149.423171s-52.55496 149.423171-117.40392 149.423171M512.11768 127.231753c-212.203006 0-383.29264 172.029028-383.292639 384.232035s172.498726 384.232035 384.723221 384.232034c43.973514 0 86.451978-7.386224 125.814474-20.982893 15.924691-5.507434 26.960025-10.822486 26.960025-10.822487 10.737552-4.802376 15.156188-17.375739 10.011005-27.643593l-2.476401-5.037737c-5.251607-10.480702-18.293645-14.963807-29.116132-10.181896 0 0-5.037736 2.667759-17.97335 7.257287-35.242665 12.551874-73.196069 19.382443-112.750946 19.382443-185.691189 0-336.203158-150.511969-336.203159-336.203158 0-185.6697 150.511969-336.203158 336.203159-336.203159 185.6697 0 336.203158 150.533458 336.203158 336.203159-1.686409 97.637738-51.572586 168.913061-99.536994 168.080089-45.318138-0.789992-69.631894-65.980737-69.631894-154.140612V364.601952c0-11.718903-8.66638-10.886955-20.150945-10.886955h-5.613858c-11.718903 0-16.927531-0.939395-16.927531 10.886955v35.775808c-42.692335-34.495652-73.046666-56.183604-118.855992-56.994062-92.834338-1.601474-170.641425 83.07916-172.498726 189.17043-1.857301 106.069781 71.360258 193.396685 164.19562 195.019649 59.108213 1.02433 111.426789-32.937157 142.315286-85.150332 18.678408 51.081399 48.968272 84.33885 95.118358 85.150332 79.55694 1.387603 145.880485-94.243431 145.880485-213.59061v-2.518356c0-212.20403-170.193217-384.233058-382.396224-384.233058" fill="#ACACAC" p-id="7626"></path></svg>