<?xml version="1.0" standalone="no"?><!DOCTYPE svg PUBLIC "-//W3C//DTD SVG 1.1//EN" "http://www.w3.org/Graphics/SVG/1.1/DTD/svg11.dtd"><svg t="1505368007629" class="icon" style="" viewBox="0 0 1024 1024" version="1.1" xmlns="http://www.w3.org/2000/svg" p-id="3687" xmlns:xlink="http://www.w3.org/1999/xlink" width="20" height="20"><defs><style type="text/css"></style></defs><path d="M724.032 564.608v-105.6c0-10.56 3.52-22.72 8.384-27.776l115.584-118.976c37.824-38.912 81.344-49.856 81.344-8.128v415.424c0 41.664-43.52 30.784-81.344-8.128l-115.584-118.976c-4.864-4.992-8.384-17.216-8.384-27.84zM669.376 681.792a64 64 0 0 1-64 64h-446.72a64 64 0 0 1-64-64V341.76a64 64 0 0 1 64-64h446.72a64 64 0 0 1 64 64v340.032z" p-id="3688"></path></svg>