<?xml version="1.0" standalone="no"?><!DOCTYPE svg PUBLIC "-//W3C//DTD SVG 1.1//EN" "http://www.w3.org/Graphics/SVG/1.1/DTD/svg11.dtd"><svg t="1505129474059" class="icon" style="" viewBox="0 0 1024 1024" version="1.1" xmlns="http://www.w3.org/2000/svg" p-id="30751" xmlns:xlink="http://www.w3.org/1999/xlink" width="20" height="20"><defs><style type="text/css"></style></defs><path d="M510.732124 614.626355c82.222653 0 148.859329-66.077951 148.859329-147.608849l0-196.802248c0-81.504292-66.6377-147.607826-148.859329-147.607826-82.21856 0-148.856259 66.103534-148.856259 147.607826l0 196.802248C361.876887 548.549427 428.541193 614.626355 510.732124 614.626355L510.732124 614.626355 510.732124 614.626355zM783.640724 479.590869l0-0.196475 0-0.099261c0-20.393469-16.672728-36.900422-37.21253-36.900422-20.544919 0-37.216623 16.506952-37.216623 36.900422l0 0c-0.048095 108.687398-88.87005 196.761316-198.478424 196.808388-109.61042-0.047072-198.427258-88.122013-198.47433-196.808388l0 0c0-20.393469-16.651238-36.900422-37.21867-36.900422-20.565385 0-37.211507 16.506952-37.211507 36.900422l0 0.099261 0 0.196475c0 136.833435 102.636588 249.626337 235.691977 267.560802l0 88.88233L349.471346 836.034001c-20.566408 0-37.21253 16.532535-37.21253 36.903491 0 20.367887 16.646122 36.899398 37.21253 36.899398L671.999041 909.836891c20.539802 0 37.211507-16.532535 37.211507-36.899398 0-20.37198-16.672728-36.898375-37.211507-36.898375L547.950793 836.039117l0-88.887446C681.025625 729.217207 783.640724 616.424304 783.640724 479.590869L783.640724 479.590869 783.640724 479.590869z" p-id="30752"></path></svg>