<?xml version="1.0" standalone="no"?><!DOCTYPE svg PUBLIC "-//W3C//DTD SVG 1.1//EN" "http://www.w3.org/Graphics/SVG/1.1/DTD/svg11.dtd"><svg t="1505457631497" class="icon" style="" viewBox="0 0 1024 1024" version="1.1" xmlns="http://www.w3.org/2000/svg" p-id="4050" xmlns:xlink="http://www.w3.org/1999/xlink" width="45" height="45"><defs><style type="text/css"></style></defs><path d="M895.471 510.292c0-0.003 0-0.007 0-0.011 0-63.72-51.655-115.375-115.375-115.375-63.72 0-115.375 51.655-115.375 115.375 0 0.004 0 0.008 0 0.011 0 0.003 0 0.006 0 0.010 0 63.72 51.655 115.375 115.375 115.375 63.72 0 115.375-51.655 115.375-115.375 0-0.004 0-0.008 0-0.011z" p-id="4051" fill="#e6e6e6"></path><path d="M281.148 74.099c-204.799 254.073-203.299 623.704 3.388 876.241 15.393 18.808 31.012 35.88 47.031 51.739 30.094 29.794 78.858 29.006 108.674-1.066 30.582-30.844 29.426-80.992-2.363-110.592-3.387-3.154-5.617-5.27-6.141-5.811-200.877-207.372-202.42-536.758-2.841-745.955 0.482-0.506 2.555-2.506 5.724-5.508 31.548-29.876 32.295-80.035 1.442-110.627-30.062-29.807-78.816-30.186-108.646-0.148-15.771 15.881-31.136 32.95-46.269 51.726z" p-id="4052" fill="#e6e6e6"></path><path d="M464.060 290.804c13.658-19.438 28.635-37.115 44.592-53.024 29.388-29.3 77.297-28.51 106.766 0.71l1.435 1.423c31.765 31.496 30.19 82.85-2.88 112.436-6.804 6.089-11.644 10.72-12.958 12.334-71.28 87.533-68.602 214.704 7.085 299.235 0.595 0.664 2.838 2.713 6.24 5.665 33.671 29.212 35.897 80.846 4.511 112.5-29.817 30.071-78.823 31.442-108.95 1.683-15.487-15.298-30.068-32.25-43.445-50.856-93.687-130.322-94.672-310.784-2.397-442.109z" p-id="4053" fill="#e6e6e6"></path></svg>