<?xml version="1.0" standalone="no"?><!DOCTYPE svg PUBLIC "-//W3C//DTD SVG 1.1//EN" "http://www.w3.org/Graphics/SVG/1.1/DTD/svg11.dtd"><svg t="1505119640432" class="icon" style="" viewBox="0 0 1024 1024" version="1.1" xmlns="http://www.w3.org/2000/svg" p-id="7007" xmlns:xlink="http://www.w3.org/1999/xlink" width="32" height="32"><defs><style type="text/css"></style></defs><path d="M512 957.373557c-245.926062 0-445.373557-199.450565-445.373557-445.373557 0-245.924016 199.447495-445.373557 445.373557-445.373557s445.373557 199.449541 445.373557 445.373557c0 245.921969-201.390753 445.373557-445.373557 445.373557z m0-852.020091c-224.623897 0-406.644487 182.022637-406.644487 406.646534 0 224.622874 182.02059 406.644487 406.644487 406.644487s406.644487-182.022637 406.644487-406.644487c0-224.623897-183.954639-406.646534-406.644487-406.646534z m202.103997 476.016461h-31.367404c-8.658194 0-15.686261-7.027044-15.686261-15.683191v-62.733786c0-8.658194 7.02909-15.683191 15.686261-15.683191h31.367404c8.658194 0 15.686261 7.02602 15.686261 15.683191v62.733786c0 8.656147-7.02909 15.683191-15.686261 15.683191z m0-141.15281h-31.367404c-8.658194 0-15.686261-7.023974-15.686261-15.682168v-62.733786c0-8.658194 7.02909-15.683191 15.686261-15.683191h31.367404c8.658194 0 15.686261 7.02602 15.686261 15.683191v62.733786c0 8.65717-7.02909 15.682167-15.686261 15.682168zM588.639494 581.369927H557.26595c-8.650007 0-15.679098-7.027044-15.679098-15.683191v-62.733786c0-8.658194 7.02909-15.683191 15.679098-15.683191h31.373544c8.651031 0 15.680121 7.02602 15.680121 15.683191v62.733786c0 8.656147-7.02909 15.683191-15.680121 15.683191z m0-141.15281H557.26595c-8.650007 0-15.679098-7.023974-15.679098-15.682168v-62.733786c0-8.658194 7.02909-15.683191 15.679098-15.683191h31.373544c8.651031 0 15.680121 7.02602 15.680121 15.683191v62.733786c0 8.65717-7.02909 15.682167-15.680121 15.682168z m109.784383 219.569787v15.683191c0 8.658194-7.027044 15.682167-15.686261 15.682168h-345.038384c-8.651031 0-15.680121-7.023974-15.680121-15.682168v-15.683191c0-8.658194 7.02909-15.683191 15.680121-15.68319h345.038384c8.658194 0 15.686261 7.02602 15.686261 15.68319z m-235.254002-78.416977h-31.367405c-8.658194 0-15.686261-7.027044-15.686261-15.683191v-62.733786c0-8.658194 7.02909-15.683191 15.686261-15.683191h31.367405c8.650007 0 15.679098 7.02602 15.679097 15.683191v62.733786c-0.001023 8.656147-7.030114 15.683191-15.679097 15.683191z m0-141.15281h-31.367405c-8.658194 0-15.686261-7.023974-15.686261-15.682168v-62.733786c0-8.658194 7.02909-15.683191 15.686261-15.683191h31.367405c8.650007 0 15.679098 7.02602 15.679097 15.683191v62.733786c-0.001023 8.65717-7.030114 15.682167-15.679097 15.682168zM337.698209 581.369927h-31.359219c-8.665357 0-15.694447-7.027044-15.694447-15.683191v-62.733786c0-8.658194 7.02909-15.683191 15.694447-15.683191h31.359219c8.665357 0 15.686261 7.02602 15.68626 15.683191v62.733786c0 8.656147-7.020904 15.683191-15.68626 15.683191z m0-141.15281h-31.359219c-8.665357 0-15.694447-7.023974-15.694447-15.682168v-62.733786c0-8.658194 7.02909-15.683191 15.694447-15.683191h31.359219c8.665357 0 15.686261 7.02602 15.68626 15.683191v62.733786c0 8.65717-7.020904 15.682167-15.68626 15.682168z" p-id="7008"></path></svg>