<?xml version="1.0" standalone="no"?><!DOCTYPE svg PUBLIC "-//W3C//DTD SVG 1.1//EN" "http://www.w3.org/Graphics/SVG/1.1/DTD/svg11.dtd"><svg t="1505371293731" class="icon" style="" viewBox="0 0 1024 1024" version="1.1" xmlns="http://www.w3.org/2000/svg" p-id="4110" xmlns:xlink="http://www.w3.org/1999/xlink" width="400" height="400"><defs><style type="text/css"></style></defs><path d="M964.137109 911.826773c-28.427072-162.034312-154.074732-243.733718-308.718005-272.899895a18.989284 18.989284 0 0 1-14.782078-19.387263v-8.300705a20.126367 20.126367 0 0 1 7.391039-16.658265 397.353617 397.353617 0 0 0 113.139748-304.624507c0-159.191605-98.35767-286.658598-246.178447-289.444451-149.526401 2.785853-247.315529 131.560491-247.315529 290.80895a392.293598 392.293598 0 0 0 119.393704 310.196214 21.888846 21.888846 0 0 1 7.391038 16.60141 18.818722 18.818722 0 0 1-16.487702 19.387263c-159.191605 27.687968-288.819055 109.444229-318.951751 274.20754a84.826384 84.826384 0 0 0 80.732885 112.173228h744.220754a84.257842 84.257842 0 0 0 80.164344-112.173228z" p-id="4111" fill="#ffffff"></path></svg>