<?xml version="1.0" standalone="no"?><!DOCTYPE svg PUBLIC "-//W3C//DTD SVG 1.1//EN" "http://www.w3.org/Graphics/SVG/1.1/DTD/svg11.dtd"><svg t="1505364484422" class="icon" style="" viewBox="0 0 1024 1024" version="1.1" xmlns="http://www.w3.org/2000/svg" p-id="18233" xmlns:xlink="http://www.w3.org/1999/xlink" width="400" height="400"><defs><style type="text/css"></style></defs><path d="M776.877 172.523l-3.412-3.383c-67.214-66.357-159.54-107.376-261.473-107.376-101.814 0-194.079 40.93-261.276 107.18l-3.79 3.775c-66.237 67.228-107.182 159.448-107.182 261.292 0 101.932 41.005 194.244 107.377 261.473l3.398 3.384 261.487 261.516 261.668-261.651 3.022-3.053c66.477-67.257 107.557-159.628 107.557-261.667 0-101.92-41.003-194.23-107.376-261.49z m-264.87 367.271c-71.935 0-130.248-58.327-130.248-130.247 0-29.728 9.924-57.08 26.646-78.987 23.802-31.171 61.35-51.29 103.602-51.29 71.935 0 130.247 58.342 130.247 130.278 0 71.919-58.312 130.246-130.247 130.246z" p-id="18234" fill="#707070"></path></svg>