<?xml version="1.0" standalone="no"?><!DOCTYPE svg PUBLIC "-//W3C//DTD SVG 1.1//EN" "http://www.w3.org/Graphics/SVG/1.1/DTD/svg11.dtd"><svg t="1505310941736" class="icon" style="" viewBox="0 0 1024 1024" version="1.1" xmlns="http://www.w3.org/2000/svg" p-id="3369" xmlns:xlink="http://www.w3.org/1999/xlink" width="200" height="200"><defs><style type="text/css"></style></defs><path d="M511.55 365.233c-101.465 0-183.74 82.259-183.74 183.723 0 101.458 82.274 183.707 183.74 183.707 101.475 0 183.735-82.249 183.735-183.707 0-101.46-82.26-183.723-183.735-183.723zM205.187 135.304H98.211v46.352h106.976v-46.352m746.664 92.161H751.689c-15.189-10.933-33.221-30.229-49.781-64.435-20.106-41.512-92.58-42.8-92.58-42.8H375.975s-23.856-5.93-51.941 42.325c-19.016 32.678-36.196 52.919-52.399 64.91H71.233C35.188 227.465 6 258.419 6 296.546V831.85c0 38.145 29.188 69.077 65.233 69.077h880.611c36.052 0 65.251-30.928 65.251-69.077V296.531c0.01-38.128-29.209-69.066-65.244-69.066zM511.428 778.88c-126.82 0-229.628-102.841-229.628-229.688 0-126.853 102.808-229.689 229.628-229.689 126.803 0 229.626 102.836 229.626 229.689 0.001 126.847-102.823 229.688-229.626 229.688zM840.713 365.3c-21.104 0-38.224-17.164-38.224-38.346 0-21.192 17.12-38.355 38.224-38.355 21.125 0 38.25 17.163 38.25 38.355 0 21.182-17.119 38.346-38.25 38.346z" p-id="3370"></path></svg>