<?xml version="1.0" standalone="no"?><!DOCTYPE svg PUBLIC "-//W3C//DTD SVG 1.1//EN" "http://www.w3.org/Graphics/SVG/1.1/DTD/svg11.dtd"><svg t="1505363558413" class="icon" style="" viewBox="0 0 1024 1024" version="1.1" xmlns="http://www.w3.org/2000/svg" p-id="8191" xmlns:xlink="http://www.w3.org/1999/xlink" width="300" height="300"><defs><style type="text/css"></style></defs><path d="M911.79008 851.16928h-792.9856a54.0672 54.0672 0 0 1-54.0672-54.0672V328.5504a54.0672 54.0672 0 0 1 54.0672-54.0672h162.2016c54.0672 0 72.0896-108.12416 108.1344-108.12416h234.2912c53.59616 0 74.0864 108.1344 126.17728 108.1344h162.18112a54.07744 54.07744 0 0 1 54.0672 54.05696v468.56192a54.07744 54.07744 0 0 1-54.0672 54.0672z m-396.4928-522.61888c-119.42912 0-216.24832 96.8192-216.24832 216.24832 0 119.47008 96.8192 216.29952 216.24832 216.29952 119.4496 0 216.2688-96.82944 216.2688-216.29952 0-119.42912-96.8192-216.24832-216.2688-216.24832z m261.3248 0a27.02336 27.02336 0 0 0-27.01312 27.04384 27.0336 27.0336 0 1 0 27.01312-27.05408z m-261.3248 378.48064c-89.57952 0-162.2016-72.64256-162.2016-162.23232 0-89.55904 72.62208-162.19136 162.2016-162.19136 89.56928 0 162.2016 72.63232 162.2016 162.19136 0 89.58976-72.63232 162.23232-162.2016 162.23232z m-360.448-486.6048c0-9.95328 8.0896-18.03264 18.0224-18.03264h54.0672c9.96352 0 18.04288 8.07936 18.04288 18.0224v18.04288h-90.13248v-18.03264z" p-id="8192" fill="#707070"></path></svg>