<?xml version="1.0" standalone="no"?><!DOCTYPE svg PUBLIC "-//W3C//DTD SVG 1.1//EN" "http://www.w3.org/Graphics/SVG/1.1/DTD/svg11.dtd"><svg t="1505363706125" class="icon" style="" viewBox="0 0 1024 1024" version="1.1" xmlns="http://www.w3.org/2000/svg" p-id="9731" xmlns:xlink="http://www.w3.org/1999/xlink" width="300" height="300"><defs><style type="text/css"></style></defs><path d="M904.742 143.694H121.957c-29.894 0-52.037 22.144-52.037 52.038v574.633c0 28.788 22.143 52.039 52.037 52.039h782.786c27.679 0 52.039-23.251 52.039-52.039V195.732c-0.001-29.894-24.361-52.038-52.04-52.038z m16.772 525.81c0 4.694 0 5.868-2.757 7.042l-161.32-160.794s-49.639-49.293-97.896 28.168c-45.5 79.812-82.73 80.983-128.229 26.995L336.898 407.774s-45.5-59.856-97.895 0L108.015 534.531V225.858c0-22.301 22.063-41.079 46.88-41.079h716.982c27.577 0 49.637 18.778 49.637 41.079v443.646z" fill="#707070" p-id="9732"></path></svg>