<?xml version="1.0" standalone="no"?><!DOCTYPE svg PUBLIC "-//W3C//DTD SVG 1.1//EN" "http://www.w3.org/Graphics/SVG/1.1/DTD/svg11.dtd"><svg t="1505364506463" class="icon" style="" viewBox="0 0 1024 1024" version="1.1" xmlns="http://www.w3.org/2000/svg" p-id="19371" xmlns:xlink="http://www.w3.org/1999/xlink" width="400" height="400"><defs><style type="text/css"></style></defs><path d="M787.2 972.8 249.6 972.8c-64 0-121.6-51.2-121.6-121.6L128 256l358.4 121.6 57.6 0L908.8 256l0 601.6C908.8 921.6 857.6 972.8 787.2 972.8L787.2 972.8 787.2 972.8zM550.4 672l89.6 0c19.2 0 32-12.8 32-25.6 0-12.8-12.8-32-32-32L550.4 614.4 550.4 588.8c0 0 64-70.4 83.2-83.2 19.2-12.8 19.2-25.6 12.8-38.4-12.8-12.8-32-12.8-44.8 0C588.8 480 518.4 544 518.4 544S460.8 480 448 467.2C441.6 460.8 416 448 403.2 460.8c-12.8 12.8 0 32 6.4 44.8C416 512 486.4 588.8 486.4 588.8l0 25.6c0 0-76.8 0-89.6 0-12.8 0-25.6 25.6-25.6 38.4 0 12.8 12.8 25.6 25.6 25.6 12.8 0 89.6 0 89.6 0l0 64c0 0-83.2 0-96 0-12.8 0-25.6 12.8-25.6 25.6 0 12.8 12.8 32 25.6 32 12.8 0 96 0 96 0s0 19.2 0 32c0 19.2 12.8 32 32 32 19.2 0 32-12.8 32-25.6 0-12.8 0-32 0-32s76.8 0 96 0c12.8 0 25.6-12.8 25.6-32 0-12.8-12.8-25.6-32-25.6-19.2 0-83.2 0-83.2 0L550.4 672 550.4 672 550.4 672zM550.4 313.6 492.8 313.6 128 192c0-64 51.2-121.6 121.6-121.6l537.6 0c64 0 121.6 51.2 121.6 121.6L550.4 313.6 550.4 313.6z" p-id="19372" fill="#707070"></path></svg>