<?xml version="1.0" standalone="no"?><!DOCTYPE svg PUBLIC "-//W3C//DTD SVG 1.1//EN" "http://www.w3.org/Graphics/SVG/1.1/DTD/svg11.dtd"><svg t="1505363826048" class="icon" style="" viewBox="0 0 1024 1024" version="1.1" xmlns="http://www.w3.org/2000/svg" p-id="14213" xmlns:xlink="http://www.w3.org/1999/xlink" width="300" height="300"><defs><style type="text/css"></style></defs><path d="M539.02437 862.123215 539.02437 983.557747C539.02437 1005.893941 520.891368 1023.973056 498.52823 1023.973056 476.165093 1023.973056 458.03209 1005.893941 458.03209 983.557747L458.03209 860.156336C306.232189 842.29277 188.677526 720.72352 188.677526 573.099867L188.677526 539.016289 269.508145 539.016289 269.508145 562.079959C269.508145 682.409807 371.273893 780.02625 497.369658 781.615919 497.773811 781.615919 498.124077 781.508145 498.52823 781.508145 499.417367 781.508145 500.27956 781.69675 501.141754 781.750637L523.558778 781.750637C651.082551 781.750637 754.491855 683.406718 754.491855 562.079959L754.491855 539.016289 835.322474 539.016289 835.322474 573.099867C835.322474 729.345452 703.649396 856.330354 539.02437 862.123215ZM512 727.2708C408.051825 727.2708 323.772433 637.06383 323.772433 525.787012L323.772433 201.629288C323.772433 90.35247 408.051825 0.118556 512 0.118556 615.948175 0.118556 700.227567 90.35247 700.227567 201.629288L700.227567 525.787012C700.227567 637.06383 615.948175 727.2708 512 727.2708Z" p-id="14214" fill="#707070"></path></svg>