<?xml version="1.0" standalone="no"?><!DOCTYPE svg PUBLIC "-//W3C//DTD SVG 1.1//EN" "http://www.w3.org/Graphics/SVG/1.1/DTD/svg11.dtd"><svg t="1505363892868" class="icon" style="" viewBox="0 0 1024 1024" version="1.1" xmlns="http://www.w3.org/2000/svg" p-id="17038" xmlns:xlink="http://www.w3.org/1999/xlink" width="400" height="400"><defs><style type="text/css"></style></defs><path d="M421.4903320081219 602.5096679918781c49.93116660648378 49.93116660648383 130.78647024826378 49.62946747747536 180.71763685474764-0.3016991290084121L783.5290039756344 421.4903320081221c50.0820165245415-50.08201652454145 50.08201652454153-130.93731945921465 1.1368683772161603e-13-181.01933598375615-49.93116660648378-49.93116660648383-130.93731945921465-50.08201652454153-181.01933598375615-1.1368683772161603e-13l-181.01933598375626 181.01933598375606c-49.93116660648383 49.93116660648378-49.93116660648387 131.0881693772723-1.1368683772161603e-13 181.01933598375615z m250.4100812084937 69.39074522473776c-90.50966799187813 90.50966799187803-230.3471050393298 77.3857661330556-313.76684880280845-6.033977630423124-83.26889455252778-83.26889455252788-96.54364562230094-223.25718081093044-6.033977630422783-313.76684880280845L300.8107744499156 300.8107744499156c-103.03017229979022 103.03017229979008-106.04716146855509 270.171358955756-21.722320318050862 383.760992285563L180.13121689170896 783.5290039756339l60.33977913265654 60.33977913265659 98.95723724015568-98.95723724015558c113.58963332980694 84.32484115050431 280.7308199857729 81.30785198173965 383.760992285563-21.722320318050578l-51.288812333468755-51.288812333468776z" fill="#707070" p-id="17039"></path></svg>