<?xml version="1.0" standalone="no"?><!DOCTYPE svg PUBLIC "-//W3C//DTD SVG 1.1//EN" "http://www.w3.org/Graphics/SVG/1.1/DTD/svg11.dtd"><svg t="1505363793963" class="icon" style="" viewBox="0 0 1024 1024" version="1.1" xmlns="http://www.w3.org/2000/svg" p-id="12760" xmlns:xlink="http://www.w3.org/1999/xlink" width="300" height="300"><defs><style type="text/css"></style></defs><path d="M914.364 586.891L618.045 774.555c-13.469 12.942-40.407 6.471-40.407-12.942v-84.126c0-12.942-13.469-25.885-26.938-25.885H119.689c-13.469-6.471-20.204-12.942-20.204-25.886v-58.241c0-12.942 13.469-25.885 26.938-25.885h774.472c13.469 6.474 26.939 25.887 13.469 45.301zM106.219 450.995l296.32-187.664c13.469-12.942 40.407-6.471 40.407 12.942v90.598c0 12.942 13.469 25.885 26.937 25.885h431.011c13.469 0 26.938 12.942 26.938 25.885v51.769c0 12.943-13.469 25.886-26.938 25.886H119.689c-20.204-6.473-26.939-32.359-13.47-45.301z" fill="#707070" p-id="12761"></path></svg>