<?xml version="1.0" standalone="no"?><!DOCTYPE svg PUBLIC "-//W3C//DTD SVG 1.1//EN" "http://www.w3.org/Graphics/SVG/1.1/DTD/svg11.dtd"><svg t="1505370640504" class="icon" style="" viewBox="0 0 1024 1024" version="1.1" xmlns="http://www.w3.org/2000/svg" p-id="2421" xmlns:xlink="http://www.w3.org/1999/xlink" width="400" height="400"><defs><style type="text/css"></style></defs><path d="M512 960C264.576 960 64 759.424 64 512 64 264.576 264.576 64 512 64 759.424 64 960 264.576 960 512 960 759.424 759.424 960 512 960ZM512 80C273.408 80 80 273.408 80 512 80 750.592 273.408 944 512 944 750.592 944 944 750.592 944 512 944 273.408 750.592 80 512 80ZM720 576 688 576C679.168 576 672 568.832 672 560L672 496C672 487.168 679.168 480 688 480L720 480C728.832 480 736 487.168 736 496L736 560C736 568.832 728.832 576 720 576ZM720 432 688 432C679.168 432 672 424.832 672 416L672 352C672 343.168 679.168 336 688 336L720 336C728.832 336 736 343.168 736 352L736 416C736 424.832 728.832 432 720 432ZM592 576 560 576C551.168 576 544 568.832 544 560L544 496C544 487.168 551.168 480 560 480L592 480C600.832 480 608 487.168 608 496L608 560C608 568.832 600.832 576 592 576ZM592 432 560 432C551.168 432 544 424.832 544 416L544 352C544 343.168 551.168 336 560 336L592 336C600.832 336 608 343.168 608 352L608 416C608 424.832 600.832 432 592 432ZM704 640 704 672C704 680.832 696.832 688 688 688L336 688C327.168 688 320 680.832 320 672L320 640C320 631.168 327.168 624 336 624L688 624C696.832 624 704 631.168 704 640ZM464 576 432 576C423.168 576 416 568.832 416 560L416 496C416 487.168 423.168 480 432 480L464 480C472.832 480 480 487.168 480 496L480 560C480 568.832 472.832 576 464 576ZM464 432 432 432C423.168 432 416 424.832 416 416L416 352C416 343.168 423.168 336 432 336L464 336C472.832 336 480 343.168 480 352L480 416C480 424.832 472.832 432 464 432ZM336 576 304 576C295.168 576 288 568.832 288 560L288 496C288 487.168 295.168 480 304 480L336 480C344.832 480 352 487.168 352 496L352 560C352 568.832 344.832 576 336 576ZM336 432 304 432C295.168 432 288 424.832 288 416L288 352C288 343.168 295.168 336 304 336L336 336C344.832 336 352 343.168 352 352L352 416C352 424.832 344.832 432 336 432Z" p-id="2422" fill="#707070"></path></svg>