<?xml version="1.0" standalone="no"?><!DOCTYPE svg PUBLIC "-//W3C//DTD SVG 1.1//EN" "http://www.w3.org/Graphics/SVG/1.1/DTD/svg11.dtd"><svg t="1501511225950" class="icon" style="" viewBox="0 0 1024 1024" version="1.1" xmlns="http://www.w3.org/2000/svg" p-id="2313" xmlns:xlink="http://www.w3.org/1999/xlink" width="200" height="200"><defs><style type="text/css"></style></defs><path d="M591.127273 603.539394c0-58.957576 93.090909-96.193939 93.090909-234.278788C684.218182 252.89697 608.193939 186.181818 512 186.181818c-94.642424 0-172.218182 66.715152-172.218182 183.078788 0 138.084848 93.090909 175.321212 93.090909 234.278788 0 96.193939-211.006061 69.818182-211.00606 162.909091 0 77.575758 80.678788 69.818182 80.678788 69.818182h418.90909c32.581818 0 80.678788-13.963636 80.678788-69.818182-1.551515-93.090909-211.006061-66.715152-211.00606-162.909091zM512 802.133333l-51.2-68.266666 34.133333-119.466667h34.133334l34.133333 119.466667-51.2 68.266666z" p-id="2314" fill="#ffffff"></path></svg>