<?xml version="1.0" standalone="no"?><!DOCTYPE svg PUBLIC "-//W3C//DTD SVG 1.1//EN" "http://www.w3.org/Graphics/SVG/1.1/DTD/svg11.dtd"><svg t="1501511428666" class="icon" style="" viewBox="0 0 1024 1024" version="1.1" xmlns="http://www.w3.org/2000/svg" p-id="1594" xmlns:xlink="http://www.w3.org/1999/xlink" width="200" height="200"><defs><style type="text/css"></style></defs><path d="M655.035694 803.221688c0-44.51075 20.488637-84.23038 52.54268-110.261243l-39.267329-15.302521c0 0-36.58115-14.20042-50.792826-28.16855-9.135054-8.978489-8.473999-30.15888-0.390903-57.214073 8.082072-27.055193 106.416681-137.010467 106.416681-236.891292 0-154.2542-101.411691-279.322683-226.496547-279.322683-125.077693 0-226.478128 125.069507-226.478128 279.33087 0 95.665827 87.62571 209.713302 98.437963 230.442416 10.821463 20.729114 8.18645 52.322669-0.356111 61.891605-12.828167 14.375405-59.70173 28.786627-59.70173 28.786627l-172.922375 77.066213c-40.398082 14.513552-72.050989 52.616358-72.050989 95.604428l0 20.389376c0 46.915519 38.102806 75.623351 84.932368 75.623351l290.030559 0 99.412151 0 256.325923 0c-6.066159 0-12.015661-0.494257-17.817808-1.429559C707.994859 933.97873 655.035694 874.789677 655.035694 803.221688z" p-id="1595" fill="#ffffff"></path><path d="M830.29223 676.086126c-70.214155 0-127.134539 56.920384-127.134539 127.134539s56.920384 127.134539 127.134539 127.134539c70.214155 0 127.134539-56.919361 127.134539-127.134539S900.506385 676.086126 830.29223 676.086126L830.29223 676.086126zM902.857942 821.36286l-54.42454 0 0 54.42454L812.151058 875.7874l0-54.42454-54.42454 0 0-36.282345L812.151058 785.080515l0-54.42454 36.283368 0 0 54.42454 54.42454 0L902.858966 821.36286 902.857942 821.36286z" p-id="1596" fill="#ffffff"></path></svg>