<?xml version="1.0" standalone="no"?><!DOCTYPE svg PUBLIC "-//W3C//DTD SVG 1.1//EN" "http://www.w3.org/Graphics/SVG/1.1/DTD/svg11.dtd"><svg t="1501511582260" class="icon" style="" viewBox="0 0 1024 1024" version="1.1" xmlns="http://www.w3.org/2000/svg" p-id="4689" xmlns:xlink="http://www.w3.org/1999/xlink" width="200" height="200"><defs><style type="text/css"></style></defs><path d="M851.570347 139.195226l-252.783237 0.036839c-9.345856 0-17.667382 3.736091-24.049742 9.519818l-0.246617-0.243547-408.55193 408.547837c-28.212552 28.212552-28.212552 73.954339 0 102.165868l204.292849 204.258057c28.177759 28.211529 73.915453 28.211529 102.128005 0l408.550906-408.55193c5.782703-6.381337 6.737448-17.492396 6.737448-26.800389l0-252.819053C887.648031 155.38393 871.496166 139.195226 851.570347 139.195226zM730.079342 355.584578c-33.907251 0-61.395302-27.487028-61.395302-61.395302s27.488051-61.395302 61.395302-61.395302 61.395302 27.487028 61.395302 61.395302S763.987616 355.584578 730.079342 355.584578z" p-id="4690" fill="#ffffff"></path></svg>