<?xml version="1.0" standalone="no"?><!DOCTYPE svg PUBLIC "-//W3C//DTD SVG 1.1//EN" "http://www.w3.org/Graphics/SVG/1.1/DTD/svg11.dtd"><svg t="1501511526433" class="icon" style="" viewBox="0 0 1378 1024" version="1.1" xmlns="http://www.w3.org/2000/svg" p-id="3415" xmlns:xlink="http://www.w3.org/1999/xlink" width="269.140625" height="200"><defs><style type="text/css"></style></defs><path d="M458.958 520.698c45.464 72.218-30.005 104.933-61.551 123.102-135.594 77.153-194.864 106.045-194.864 143.581v51.283c0 16.486 12.322 30.775 30.776 30.775h666.678c18.454 0 30.775-14.26 30.775-30.775v-51.283c0-37.536-59.269-66.457-194.892-143.581-31.517-18.169-106.988-50.884-61.522-123.102 40.359-59.953 71.876-84.368 71.791-184.624 0.086-95.151-70.307-194.864-174.356-194.864-114.318 0-184.709 99.713-184.624 194.864-0.085 100.255 31.432 124.672 71.791 184.624z" p-id="3416" fill="#ffffff"></path><path d="M779.548 624.007c12.521-7.102 26.383-14.888 41.699-23.617 21.649-12.465 73.473-34.911 42.241-84.511-27.724-41.157-49.343-57.929-49.286-126.753-0.057-65.373 48.259-133.825 126.753-133.825 71.476 0 119.793 68.453 119.736 133.826 0.057 68.825-21.563 85.595-49.286 126.753-31.232 49.6 20.594 72.048 42.241 84.511 93.125 52.994 133.825 72.846 133.825 98.601v35.225c0 11.324-8.471 21.106-21.106 21.106h-204.076c-4.31-8.839-9.772-16.398-16.312-22.871-2.626-14.436 1.908-12.667-166.43-108.444z" p-id="3417" fill="#ffffff"></path></svg>