<?xml version="1.0" standalone="no"?><!DOCTYPE svg PUBLIC "-//W3C//DTD SVG 1.1//EN" "http://www.w3.org/Graphics/SVG/1.1/DTD/svg11.dtd"><svg t="1501568409575" class="icon" style="" viewBox="0 0 1024 1024" version="1.1" xmlns="http://www.w3.org/2000/svg" p-id="1598" xmlns:xlink="http://www.w3.org/1999/xlink" width="200" height="200"><defs><style type="text/css"></style></defs><path d="M334.848 825.344c106.496-116.224 100.352-112.64 121.856-112.64h341.504c17.92 0 32.256-14.848 32.256-33.28v-458.752c0-18.432-14.336-33.28-32.256-33.28h-651.776c-17.92 0-32.256 14.848-32.256 33.28v458.752c0 18.432 14.336 33.28 32.256 33.28h139.264c21.504 0 36.352 12.288 49.152 112.64m-29.184 98.816s-16.896-157.696-30.208-157.696h-151.04c-33.28 0-60.416-28.16-60.416-62.976v-506.88c0-34.816 27.136-62.976 60.416-62.976h695.808c33.28 0 60.416 28.16 60.416 62.976v506.88c0 34.816-27.136 62.976-60.416 62.976h-353.792c-14.336-0.512-160.768 157.696-160.768 157.696z" p-id="1599" fill="#ffffff"></path></svg>